<?xml version="1.0" encoding="UTF-8"?>
<svg width="48px" height="48px" viewBox="0 0 48 48" version="1.1" xmlns="http://www.w3.org/2000/svg" xmlns:xlink="http://www.w3.org/1999/xlink">
    <!-- Generator: Sketch 51.2 (57519) - http://www.bohemiancoding.com/sketch -->
    <title>emoji/green/zzz</title>
    <desc>Created with Sketch.</desc>
    <defs>
        <path d="M24,0 C42.6533333,0 48,5.34933333 48,24 C48,42.6506667 42.6533333,48 24,48 C5.34666667,48 0,42.6506667 0,24 C0,5.34933333 5.33333333,0 24,0 Z" id="path-1"></path>
        <linearGradient x1="50%" y1="-2.48949813e-15%" x2="50%" y2="100%" id="linearGradient-3">
            <stop stop-color="#FFFFFF" offset="0%"></stop>
            <stop stop-color="#FFFFFF" stop-opacity="0" offset="100%"></stop>
        </linearGradient>
    </defs>
    <g stroke="none" stroke-width="1" fill="none" fill-rule="evenodd">
        <g>
            <mask id="mask-2" fill="white">
                <use xlink:href="#path-1"></use>
            </mask>
            <g fill-rule="nonzero"></g>
            <g mask="url(#mask-2)" fill="#24CC89">
                <rect x="0" y="0" width="48" height="48"></rect>
            </g>
            <path d="M24.5,-5 C47.4280556,-5 54,1.46377778 54,24 C54,46.5362222 47.4280556,53 24.5,53 C1.57194444,53 -5,46.5362222 -5,24 C-5,1.46377778 1.55555556,-5 24.5,-5 Z" fill="url(#linearGradient-3)" fill-rule="nonzero" style="mix-blend-mode: overlay;" mask="url(#mask-2)" transform="translate(24.500000, 24.000000) rotate(-45.000000) translate(-24.500000, -24.000000) "></path>
        </g>
        <g transform="translate(8.000000, -1.000000)" fill-rule="nonzero">
            <path d="M25.6974971,30.7352982 C25.6973099,30.7352982 25.6974971,30.7352982 25.6974971,30.7352982 C23.581193,30.7352982 21.6698012,29.6506667 20.5844211,27.8340585 C20.3419883,27.4281637 20.474386,26.9025029 20.8802807,26.6600702 C21.2861754,26.417731 21.8118363,26.5501287 22.054269,26.9559298 C22.8276023,28.2503392 24.1894737,29.0231111 25.6974035,29.0232047 C27.2054269,29.0232047 28.5673918,28.2503392 29.3407251,26.9559298 C29.5832515,26.5499415 30.1092865,26.417731 30.5147135,26.6600702 C30.9206082,26.9025965 31.0530058,27.4281637 30.8105731,27.8340585 C29.725193,29.6505731 27.8135205,30.7352982 25.6974971,30.7352982 Z" fill="#000000"></path>
            <path d="M6.20902924,30.7352982 C4.09272515,30.7352982 2.18133333,29.6506667 1.09585965,27.8340585 C0.853426901,27.4281637 0.985824561,26.9025029 1.3917193,26.6600702 C1.79789474,26.417731 2.32336842,26.5501287 2.5657076,26.9559298 C3.33904094,28.2503392 4.70100585,29.0232047 6.20902924,29.0232047 C7.7168655,29.0232047 9.07883041,28.2503392 9.85216374,26.9559298 C10.0946901,26.5501287 10.6202573,26.4176374 11.026152,26.6600702 C11.4320468,26.9025965 11.5644444,27.4281637 11.3220117,27.8340585 C10.2367251,29.6507602 8.32533333,30.7352047 6.20902924,30.7352982 Z" fill="#000000"></path>
            <g transform="translate(23.789474, 0.748538)" fill="#FFFFFF">
                <g>
                    <path d="M4.5616655,13.6561404 L0.734390643,13.6561404 C0.468584795,13.6561404 0.22665731,13.5065159 0.114077193,13.2724003 C0.00142222222,13.0382846 0.0382502924,12.7618869 0.208617544,12.5635763 L3.09789942,9.19840936 L0.734465497,9.19840936 C0.356154386,9.19840936 0.0495532164,8.90025211 0.0495532164,8.53252242 C0.0495532164,8.16479272 0.356079532,7.86663548 0.734465497,7.86663548 L4.56174035,7.86663548 C4.8275462,7.86663548 5.06947368,8.01625991 5.1820538,8.25037557 C5.29470877,8.48449123 5.2578807,8.76088889 5.08751345,8.95919948 L2.19823158,12.3243665 L4.5616655,12.3243665 C4.93997661,12.3243665 5.24657778,12.6225237 5.24657778,12.9902534 C5.24657778,13.3579831 4.93997661,13.6561404 4.5616655,13.6561404 Z"></path>
                    <path d="M15.0584889,10.9821131 L6.79934503,10.9821131 C6.53353918,10.9821131 6.2916117,10.8324886 6.17903158,10.598373 C6.06637661,10.3642573 6.10320468,10.0878596 6.27357193,9.88954906 L13.5947228,1.36263028 L6.79934503,1.36263028 C6.42103392,1.36263028 6.11443275,1.06447303 6.11443275,0.69674334 C6.11443275,0.329013645 6.42095906,0.0308564003 6.79934503,0.0308564003 L15.0584889,0.0308564003 C15.3242947,0.0308564003 15.5662222,0.180480832 15.6788023,0.414596491 C15.7914573,0.648712151 15.7546292,0.925109812 15.584262,1.1234204 L8.26311111,9.65041196 L15.0584889,9.65041196 C15.4368,9.65041196 15.7434012,9.9485692 15.7434012,10.3162989 C15.7434012,10.6840286 15.4368,10.9821131 15.0584889,10.9821131 Z"></path>
                </g>
            </g>
        </g>
    </g>
</svg>