<?xml version="1.0" encoding="UTF-8"?>
<svg width="48px" height="48px" viewBox="0 0 48 48" version="1.1" xmlns="http://www.w3.org/2000/svg" xmlns:xlink="http://www.w3.org/1999/xlink">
    <!-- Generator: Sketch 51.2 (57519) - http://www.bohemiancoding.com/sketch -->
    <title>emoji/blue/flushed</title>
    <desc>Created with Sketch.</desc>
    <defs>
        <path d="M24,0 C42.6533333,0 48,5.34933333 48,24 C48,42.6506667 42.6533333,48 24,48 C5.34666667,48 0,42.6506667 0,24 C0,5.34933333 5.33333333,0 24,0 Z" id="path-1"></path>
        <linearGradient x1="50%" y1="-2.48949813e-15%" x2="50%" y2="100%" id="linearGradient-3">
            <stop stop-color="#FFFFFF" offset="0%"></stop>
            <stop stop-color="#FFFFFF" stop-opacity="0" offset="100%"></stop>
        </linearGradient>
    </defs>
    <g stroke="none" stroke-width="1" fill="none" fill-rule="evenodd">
        <g>
            <mask id="mask-2" fill="white">
                <use xlink:href="#path-1"></use>
            </mask>
            <g fill-rule="nonzero"></g>
            <g mask="url(#mask-2)" fill="#007FFF">
                <rect x="0" y="0" width="48" height="48"></rect>
            </g>
            <path d="M24.5,-5 C47.4280556,-5 54,1.46377778 54,24 C54,46.5362222 47.4280556,53 24.5,53 C1.57194444,53 -5,46.5362222 -5,24 C-5,1.46377778 1.55555556,-5 24.5,-5 Z" fill="url(#linearGradient-3)" fill-rule="nonzero" style="mix-blend-mode: overlay;" mask="url(#mask-2)" transform="translate(24.500000, 24.000000) rotate(-45.000000) translate(-24.500000, -24.000000) "></path>
        </g>
        <g transform="translate(5.000000, 15.000000)" fill-rule="nonzero">
            <g transform="translate(1.830409, 1.654971)" fill="#FFFFFF">
                <circle cx="5.48032749" cy="5.50315789" r="5.47883041"></circle>
                <circle cx="28.7650058" cy="5.50315789" r="5.47883041"></circle>
            </g>
            <path d="M7.31101754,0.823064327 C3.81787135,0.823064327 0.976140351,3.66488889 0.976140351,7.15794152 C0.976140351,10.6509942 3.81796491,13.4928187 7.31101754,13.4928187 C10.8040702,13.4928187 13.6458947,10.6509942 13.6458947,7.15794152 C13.6458947,3.66488889 10.8039766,0.823064327 7.31101754,0.823064327 Z M7.31101754,11.780538 C4.76205848,11.780538 2.68832749,9.70680702 2.68832749,7.15784795 C2.68832749,4.60888889 4.76205848,2.53515789 7.31101754,2.53515789 C9.85997661,2.53515789 11.9337076,4.60888889 11.9337076,7.15784795 C11.9337076,9.70680702 9.85988304,11.780538 7.31101754,11.780538 Z" fill="#000000"></path>
            <path d="M30.5956959,0.823064327 C27.1025497,0.823064327 24.2608187,3.66488889 24.2608187,7.15794152 C24.2608187,10.6509942 27.1026433,13.4928187 30.5956959,13.4928187 C34.0887485,13.4928187 36.9305731,10.6509942 36.9305731,7.15794152 C36.9305731,3.66488889 34.088655,0.823064327 30.5956959,0.823064327 Z M30.5956959,11.780538 C28.0467368,11.780538 25.9730058,9.70680702 25.9730058,7.15784795 C25.9730058,4.60888889 28.0467368,2.53515789 30.5956959,2.53515789 C33.144655,2.53515789 35.218386,4.60888889 35.218386,7.15784795 C35.218386,9.70680702 33.1445614,11.780538 30.5956959,11.780538 Z" fill="#000000"></path>
            <path d="M24.7744094,16.0298947 L13.132117,16.0298947 C12.6593216,16.0298947 12.2759766,16.4132398 12.2759766,16.8860351 C12.2759766,17.3588304 12.6593216,17.7421754 13.132117,17.7421754 L24.7745029,17.7421754 C25.2472982,17.7421754 25.6306433,17.3588304 25.6306433,16.8860351 C25.6305497,16.4132398 25.2472047,16.0298947 24.7744094,16.0298947 Z" fill="#000000"></path>
            <circle fill="#000000" cx="7.31073684" cy="7.15812865" r="1.87452632"></circle>
            <circle fill="#000000" cx="30.5954152" cy="7.15812865" r="1.87452632"></circle>
        </g>
    </g>
</svg>