<?xml version="1.0" encoding="UTF-8"?>
<svg width="48px" height="48px" viewBox="0 0 48 48" version="1.1" xmlns="http://www.w3.org/2000/svg" xmlns:xlink="http://www.w3.org/1999/xlink">
    <!-- Generator: Sketch 51.2 (57519) - http://www.bohemiancoding.com/sketch -->
    <title>emoji/blue/scared</title>
    <desc>Created with Sketch.</desc>
    <defs>
        <path d="M24,0 C42.6533333,0 48,5.34933333 48,24 C48,42.6506667 42.6533333,48 24,48 C5.34666667,48 0,42.6506667 0,24 C0,5.34933333 5.33333333,0 24,0 Z" id="path-1"></path>
        <linearGradient x1="50%" y1="-2.48949813e-15%" x2="50%" y2="100%" id="linearGradient-3">
            <stop stop-color="#FFFFFF" offset="0%"></stop>
            <stop stop-color="#FFFFFF" stop-opacity="0" offset="100%"></stop>
        </linearGradient>
    </defs>
    <g stroke="none" stroke-width="1" fill="none" fill-rule="evenodd">
        <g>
            <mask id="mask-2" fill="white">
                <use xlink:href="#path-1"></use>
            </mask>
            <g fill-rule="nonzero"></g>
            <g mask="url(#mask-2)" fill="#007FFF">
                <rect x="0" y="0" width="48" height="48"></rect>
            </g>
            <path d="M24.5,-5 C47.4280556,-5 54,1.46377778 54,24 C54,46.5362222 47.4280556,53 24.5,53 C1.57194444,53 -5,46.5362222 -5,24 C-5,1.46377778 1.55555556,-5 24.5,-5 Z" fill="url(#linearGradient-3)" fill-rule="nonzero" style="mix-blend-mode: overlay;" mask="url(#mask-2)" transform="translate(24.500000, 24.000000) rotate(-45.000000) translate(-24.500000, -24.000000) "></path>
        </g>
        <g transform="translate(9.000000, 16.000000)" fill-rule="nonzero">
            <path d="M4.72846784,6.35985965 C6.47499415,6.35985965 7.89590643,4.93894737 7.89590643,3.19242105 C7.89590643,1.44589474 6.47499415,0.0249824561 4.72846784,0.0249824561 C2.98194152,0.0249824561 1.56102924,1.44589474 1.56102924,3.19242105 C1.56102924,4.93894737 2.98203509,6.35985965 4.72846784,6.35985965 Z" fill="#000000"></path>
            <path d="M25.1779649,6.35985965 C26.9244912,6.35985965 28.3454035,4.93894737 28.3454035,3.19242105 C28.3454035,1.44589474 26.9244912,0.0249824561 25.1779649,0.0249824561 C23.4314386,0.0249824561 22.0105263,1.44589474 22.0105263,3.19242105 C22.0105263,4.93894737 23.431345,6.35985965 25.1779649,6.35985965 Z" fill="#000000"></path>
            <path d="M29.5643977,15.6432281 C28.7603743,15.6432281 28.4001404,15.2873918 27.8547368,14.7488187 C27.2284912,14.1302456 26.4489825,13.3603743 24.9417076,13.3603743 C23.4344327,13.3603743 22.6551111,14.1302456 22.0286784,14.7488187 C21.4833684,15.2874854 21.1230409,15.6432281 20.3190175,15.6432281 C19.5147135,15.6432281 19.1544795,15.2873918 18.6092632,14.7488187 C17.982924,14.1302456 17.2034152,13.3603743 15.6961404,13.3603743 C14.1888655,13.3603743 13.4095439,14.1302456 12.7831111,14.7488187 C12.2378012,15.2874854 11.8774737,15.6432281 11.0733567,15.6432281 C10.2689591,15.6432281 9.90872515,15.2872982 9.36322807,14.7488187 C8.73688889,14.1302456 7.95738012,13.3603743 6.45010526,13.3603743 C4.94283041,13.3603743 4.16332164,14.1302456 3.53698246,14.7488187 C2.99148538,15.2874854 2.63115789,15.6432281 1.8268538,15.6432281 C1.35396491,15.6432281 0.97071345,16.0265731 0.97071345,16.4993684 C0.97071345,16.9721637 1.35387135,17.3555088 1.8268538,17.3555088 C3.33412865,17.3555088 4.11363743,16.5856374 4.73997661,15.9670643 C5.28547368,15.4283977 5.64580117,15.072655 6.45010526,15.072655 C7.25440936,15.072655 7.61473684,15.4285848 8.16023392,15.9670643 C8.7865731,16.5856374 9.56608187,17.3555088 11.0733567,17.3555088 C12.580538,17.3555088 13.3599532,16.5856374 13.986386,15.9670643 C14.5316959,15.4283977 14.8920234,15.072655 15.6961404,15.072655 C16.5004444,15.072655 16.8606784,15.4284912 17.4058947,15.9670643 C18.0322339,16.5856374 18.8117427,17.3555088 20.3190175,17.3555088 C21.8261053,17.3555088 22.605614,16.5856374 23.2319532,15.9670643 C23.7772632,15.4283977 24.1375906,15.072655 24.9417076,15.072655 C25.7458246,15.072655 26.106152,15.4284912 26.651462,15.9670643 C27.2777076,16.5856374 28.0572164,17.3555088 29.5643977,17.3555088 C30.0372865,17.3555088 30.420538,16.9721637 30.420538,16.4993684 C30.4204444,16.0264795 30.037193,15.6432281 29.5643977,15.6432281 Z" fill="#000000"></path>
            <g transform="translate(4.847953, 1.777778)" fill="#FFFFFF">
                <circle cx="0.936327485" cy="0.879438596" r="1"></circle>
                <circle cx="21.3685146" cy="0.879438596" r="1"></circle>
            </g>
        </g>
    </g>
</svg>