<?xml version="1.0" encoding="UTF-8"?>
<svg width="48px" height="48px" viewBox="0 0 48 48" version="1.1" xmlns="http://www.w3.org/2000/svg" xmlns:xlink="http://www.w3.org/1999/xlink">
    <!-- Generator: Sketch 51.2 (57519) - http://www.bohemiancoding.com/sketch -->
    <title>emoji/blue/shocked</title>
    <desc>Created with Sketch.</desc>
    <defs>
        <path d="M24,0 C42.6533333,0 48,5.34933333 48,24 C48,42.6506667 42.6533333,48 24,48 C5.34666667,48 0,42.6506667 0,24 C0,5.34933333 5.33333333,0 24,0 Z" id="path-1"></path>
        <linearGradient x1="50%" y1="-2.48949813e-15%" x2="50%" y2="100%" id="linearGradient-3">
            <stop stop-color="#FFFFFF" offset="0%"></stop>
            <stop stop-color="#FFFFFF" stop-opacity="0" offset="100%"></stop>
        </linearGradient>
    </defs>
    <g stroke="none" stroke-width="1" fill="none" fill-rule="evenodd">
        <g>
            <mask id="mask-2" fill="white">
                <use xlink:href="#path-1"></use>
            </mask>
            <g fill-rule="nonzero"></g>
            <g mask="url(#mask-2)" fill="#007FFF">
                <rect x="0" y="0" width="48" height="48"></rect>
            </g>
            <path d="M24.5,-5 C47.4280556,-5 54,1.46377778 54,24 C54,46.5362222 47.4280556,53 24.5,53 C1.57194444,53 -5,46.5362222 -5,24 C-5,1.46377778 1.55555556,-5 24.5,-5 Z" fill="url(#linearGradient-3)" fill-rule="nonzero" style="mix-blend-mode: overlay;" mask="url(#mask-2)" transform="translate(24.500000, 24.000000) rotate(-45.000000) translate(-24.500000, -24.000000) "></path>
        </g>
        <g transform="translate(4.000000, 10.000000)" fill-rule="nonzero">
            <path d="M19.7987368,27.3106901 C16.6783626,27.3106901 14.1486784,24.7810994 14.1486784,21.6608187 L14.1486784,17.2093567 C14.1486784,14.0889825 16.678269,11.5594854 19.7985497,11.5594854 C22.918924,11.5594854 25.4484211,14.089076 25.4484211,17.2093567 L25.4484211,21.6608187 C25.4487953,24.7810994 22.9192047,27.3106901 19.7987368,27.3106901 Z" fill="#A81004"></path>
            <g transform="translate(0.584795, 0.947368)" fill="#FFFFFF">
                <ellipse transform="translate(8.068223, 8.112538) rotate(-45.000000) translate(-8.068223, -8.112538) " cx="8.06822282" cy="8.11253812" rx="6.33724917" ry="5.02572958"></ellipse>
                <ellipse transform="translate(30.669026, 8.112300) rotate(45.000000) translate(-30.669026, -8.112300) " cx="30.6690256" cy="8.11230016" rx="6.33724917" ry="5.02572958"></ellipse>
            </g>
            <path d="M21.2366784,21.3555088 C21.6647485,21.1614503 22.1190175,21.0564678 22.5904094,21.0564678 C23.641731,21.0564678 24.6119298,21.5758596 25.3927485,22.453614 C25.0080936,25.1988772 22.6498246,27.3105029 19.7984561,27.3105029 C16.9470877,27.3105029 14.5899415,25.1976608 14.2052865,22.4523977 C14.9860117,21.5757661 15.9551813,21.0563743 17.0052865,21.0563743 C17.4766784,21.0563743 17.9321637,21.1613567 18.3602339,21.3554152 C19.2790643,21.7721637 20.3177544,21.7710409 21.2366784,21.3555088 Z" fill="#F95428"></path>
            <path d="M24.6645146,14.336655 C23.4077193,15.5603275 21.6910409,16.3136374 19.7984561,16.3136374 C17.9070877,16.3136374 16.1903158,15.5602339 14.9335205,14.3377778 C15.9163509,12.6746199 17.7266901,11.5594854 19.7984561,11.5594854 C21.3588772,11.5594854 22.770807,12.1918129 23.7935906,13.2145965 C24.1291228,13.5502222 24.4213333,13.926924 24.6645146,14.336655 Z" fill="#FFFFFF"></path>
            <path d="M13.7399766,3.9737076 C11.4463626,1.68018713 7.29861988,2.09609357 4.49384795,4.90095906 C1.68907602,7.70563743 1.27316959,11.8534737 3.56659649,14.1470877 C4.56299415,15.1434854 5.90895906,15.6284444 7.34325146,15.6284444 C9.21019883,15.6284444 11.2264795,14.8061754 12.8127251,13.2198363 C15.6175906,10.4150643 16.0335906,6.26722807 13.7399766,3.9737076 Z M13.4847251,8.30652632 C13.3316491,9.63312281 12.6631111,10.948117 11.602152,12.009076 C10.541193,13.0700351 9.2262924,13.7386667 7.89960234,13.8916491 C6.64692398,14.0367719 5.53815205,13.6968421 4.77735673,12.9361404 C3.1514386,11.3101287 3.56725146,8.24860819 5.70460819,6.1114386 C6.96252632,4.85352047 8.54053801,4.192 9.9577076,4.192 C10.9483977,4.192 11.8603041,4.51536842 12.5293099,5.1842807 C13.2899181,5.94507602 13.6293801,7.05394152 13.4847251,8.30652632 Z" fill="#000000"></path>
            <path d="M35.4126784,4.9008655 C32.608,2.09609357 28.4599766,1.68009357 26.1665497,3.97361404 C23.8730292,6.2671345 24.2889357,10.4148772 27.0938012,13.2197427 C28.6802339,14.8061754 30.6960468,15.6283509 32.5632749,15.6283509 C33.9972865,15.6283509 35.3436257,15.1432047 36.3399298,14.1469942 C38.6333567,11.8534737 38.2174503,7.70554386 35.4126784,4.9008655 Z M35.1291696,12.9363275 C34.3684678,13.6971228 33.2594152,14.0367719 32.006924,13.8918363 C30.6803275,13.7387602 29.3653333,13.0702222 28.3043743,12.0092632 C27.2434152,10.9483041 26.5747836,9.63321637 26.4218012,8.30661988 C26.2771462,7.05394152 26.6166082,5.94516959 27.3773099,5.18437427 C28.0464094,4.51536842 28.9581287,4.19209357 29.9489123,4.19209357 C31.3658947,4.19209357 32.9441871,4.85380117 34.2020117,6.11162573 C36.3391813,8.24879532 36.7550877,11.3103158 35.1291696,12.9363275 Z" fill="#000000"></path>
            <path d="M24.3988772,12.6093099 C23.1698713,11.3803041 21.5360936,10.7034386 19.7984561,10.7034386 C17.5090526,10.7034386 15.3626199,11.9291696 14.1971462,13.9012865 C13.6057076,14.8986199 13.293193,16.0426667 13.293193,17.2098246 L13.293193,21.6603509 C13.293193,21.9719298 13.3149942,22.2800468 13.3574737,22.5713216 C13.8044444,25.7611228 16.5734737,28.1666433 19.7984561,28.1666433 C23.0241871,28.1666433 25.7936842,25.7616842 26.24,22.5767485 C26.2830409,22.2809825 26.3048421,21.9726784 26.3048421,21.6602573 L26.3048421,17.209731 C26.3048421,16.0431345 25.9924211,14.898807 25.4008889,13.8997895 C25.1212164,13.4287719 24.7840936,12.9945263 24.3988772,12.6093099 Z M22.5903158,20.2004211 C22.0071111,20.2004211 21.4327953,20.3266433 20.8838363,20.5755322 C20.1931228,20.8879532 19.4021053,20.8880468 18.7134503,20.5759064 C18.1638363,20.3267368 17.5891462,20.2005146 17.0050994,20.2005146 C16.3069942,20.2005146 15.6334971,20.3775439 15.0052865,20.7189708 L15.0052865,17.2100117 C15.0052865,16.6978246 15.088655,16.192655 15.2465029,15.7121871 C16.566924,16.6582456 18.146152,17.1699649 19.7983626,17.1699649 C21.4514152,17.1699649 23.0308304,16.6580585 24.351345,15.7115322 C24.509193,16.1921871 24.5925614,16.697731 24.5925614,17.2099181 L24.5925614,20.7259883 C23.9593918,20.3822222 23.2798129,20.2004211 22.5903158,20.2004211 Z M19.7984561,12.4156257 C21.0787368,12.4156257 22.2826667,12.9143392 23.1883041,13.8199766 C23.3062924,13.9379649 23.4167018,14.0637193 23.5220585,14.1936842 C22.4580117,15.012117 21.1605146,15.4575906 19.7986433,15.4575906 C18.4375205,15.4575906 17.1404912,15.0123977 16.0763509,14.1943392 C16.9787135,13.0839766 18.3490058,12.4156257 19.7984561,12.4156257 Z M19.7984561,26.4544561 C17.5601404,26.4544561 15.6206784,24.8822456 15.1274854,22.7323509 C15.5804444,22.3112982 16.2173567,21.9125146 17.0053801,21.9125146 C17.3438129,21.9125146 17.6807485,21.9873684 18.0066433,22.1352047 C19.1437661,22.6507602 20.4495906,22.6509474 21.5901754,22.1352047 C21.9161637,21.9873684 22.2528187,21.9125146 22.5905965,21.9125146 C23.3806784,21.9125146 24.0182456,22.3119532 24.4710175,22.7334737 C23.9795088,24.8808421 22.0386433,26.4544561 19.7984561,26.4544561 Z" fill="#000000"></path>
        </g>
    </g>
</svg>