<?xml version="1.0" encoding="UTF-8"?>
<svg width="48px" height="48px" viewBox="0 0 48 48" version="1.1" xmlns="http://www.w3.org/2000/svg" xmlns:xlink="http://www.w3.org/1999/xlink">
    <!-- Generator: Sketch 51.2 (57519) - http://www.bohemiancoding.com/sketch -->
    <title>emoji/yellow/cry</title>
    <desc>Created with Sketch.</desc>
    <defs>
        <path d="M24,0 C42.6533333,0 48,5.34933333 48,24 C48,42.6506667 42.6533333,48 24,48 C5.34666667,48 0,42.6506667 0,24 C0,5.34933333 5.33333333,0 24,0 Z" id="path-1"></path>
        <linearGradient x1="50%" y1="-2.48949813e-15%" x2="50%" y2="100%" id="linearGradient-3">
            <stop stop-color="#FFFFFF" offset="0%"></stop>
            <stop stop-color="#FFFFFF" stop-opacity="0" offset="100%"></stop>
        </linearGradient>
    </defs>
    <g stroke="none" stroke-width="1" fill="none" fill-rule="evenodd">
        <g>
            <mask id="mask-2" fill="white">
                <use xlink:href="#path-1"></use>
            </mask>
            <g fill-rule="nonzero"></g>
            <g mask="url(#mask-2)" fill="#FFBE0B">
                <rect x="0" y="0" width="48" height="48"></rect>
            </g>
            <path d="M24.5,-5 C47.4280556,-5 54,1.46377778 54,24 C54,46.5362222 47.4280556,53 24.5,53 C1.57194444,53 -5,46.5362222 -5,24 C-5,1.46377778 1.55555556,-5 24.5,-5 Z" fill="url(#linearGradient-3)" fill-rule="nonzero" style="mix-blend-mode: overlay;" mask="url(#mask-2)" transform="translate(24.500000, 24.000000) rotate(-45.000000) translate(-24.500000, -24.000000) "></path>
        </g>
        <g transform="translate(8.000000, 11.000000)" fill-rule="nonzero">
            <path d="M16.0600702,17.1071345 C12.5304327,17.1071345 9.21197661,18.4816374 6.71616374,20.9774503 C6.38184795,21.3117661 6.38184795,21.8537076 6.71616374,22.188117 C7.0505731,22.5224327 7.59260819,22.5224327 7.92692398,22.188117 C10.0992749,20.0156725 12.9876959,18.8192281 16.0600702,18.8192281 C19.1324444,18.8192281 22.0208655,20.0156725 24.1932164,22.188117 C24.3604211,22.3553216 24.579462,22.4388772 24.7986901,22.4388772 C25.017731,22.4388772 25.2368655,22.3553216 25.4041637,22.188117 C25.7384795,21.8538012 25.7384795,21.3118596 25.4041637,20.9774503 C22.9082573,18.481731 19.5897076,17.1071345 16.0600702,17.1071345 Z" fill="#000000"></path>
            <path d="M7.14404678,1.77847953 C7.14404678,1.30568421 6.76088889,0.922339181 6.28790643,0.922339181 C5.81492398,0.922339181 5.43176608,1.30568421 5.43176608,1.77847953 C5.43176608,4.2914152 3.3874152,6.33585965 0.874385965,6.33585965 C0.401497076,6.33585965 0.018245614,6.71920468 0.018245614,7.192 C0.018245614,7.66479532 0.401403509,8.04814035 0.874385965,8.04814035 C4.3314152,8.04795322 7.14404678,5.23550877 7.14404678,1.77847953 Z" fill="#000000"></path>
            <path d="M31.0320468,6.33576608 C28.5190175,6.33576608 26.4746667,4.2914152 26.4746667,1.77838596 C26.4746667,1.30559064 26.0915088,0.922245614 25.6185263,0.922245614 C25.1456374,0.922245614 24.762386,1.30559064 24.762386,1.77838596 C24.762386,5.2354152 27.574924,8.04795322 31.0319532,8.04795322 C31.5048421,8.04795322 31.8880936,7.66460819 31.8880936,7.19181287 C31.8880936,6.71901754 31.5049357,6.33576608 31.0320468,6.33576608 Z" fill="#000000"></path>
            <path d="M8.89609357,10.5188772 C8.89609357,8.77235088 7.47518129,7.3514386 5.72865497,7.3514386 C3.98212865,7.3514386 2.56121637,8.77235088 2.56121637,10.5188772 C2.56121637,12.2654035 3.98212865,13.6863158 5.72865497,13.6863158 C7.47518129,13.6863158 8.89609357,12.2654035 8.89609357,10.5188772 Z" fill="#000000"></path>
            <path d="M26.1777778,7.3514386 C24.4312515,7.3514386 23.0103392,8.77235088 23.0103392,10.5188772 C23.0103392,12.2654035 24.4312515,13.6863158 26.1777778,13.6863158 C27.9243041,13.6863158 29.3452164,12.2654035 29.3452164,10.5188772 C29.3452164,8.77235088 27.9243977,7.3514386 26.1777778,7.3514386 Z" fill="#000000"></path>
            <g transform="translate(5.192982, 9.210526)" fill="#FFFFFF">
                <circle cx="0.887017544" cy="0.876912281" r="1"></circle>
                <circle cx="21.3192047" cy="0.876912281" r="1"></circle>
            </g>
        </g>
    </g>
</svg>