<?xml version="1.0" encoding="UTF-8"?>
<svg width="48px" height="48px" viewBox="0 0 48 48" version="1.1" xmlns="http://www.w3.org/2000/svg" xmlns:xlink="http://www.w3.org/1999/xlink">
    <!-- Generator: Sketch 51.2 (57519) - http://www.bohemiancoding.com/sketch -->
    <title>emoji/yellow/pleased</title>
    <desc>Created with Sketch.</desc>
    <defs>
        <path d="M24,0 C42.6533333,0 48,5.34933333 48,24 C48,42.6506667 42.6533333,48 24,48 C5.34666667,48 0,42.6506667 0,24 C0,5.34933333 5.33333333,0 24,0 Z" id="path-1"></path>
        <linearGradient x1="50%" y1="-2.48949813e-15%" x2="50%" y2="100%" id="linearGradient-3">
            <stop stop-color="#FFFFFF" offset="0%"></stop>
            <stop stop-color="#FFFFFF" stop-opacity="0" offset="100%"></stop>
        </linearGradient>
        <path d="M10.5879766,4.42573099 C10.2965146,4.42573099 10.012538,4.2768655 9.85225731,4.00851462 C9.07892398,2.71410526 7.71695906,1.94123977 6.20902924,1.94123977 C4.70109942,1.94123977 3.3391345,2.7140117 2.56580117,4.00851462 C2.32346199,4.41440936 1.79780117,4.54680702 1.39181287,4.30437427 C0.985918129,4.06184795 0.853520468,3.5362807 1.09595322,3.13038596 C2.18133333,1.31359064 4.09272515,0.229146199 6.20902924,0.229146199 C8.32533333,0.229146199 10.2367251,1.31377778 11.3221053,3.13038596 C11.564538,3.5362807 11.4321404,4.06194152 11.0262456,4.30437427 C10.8887018,4.38671345 10.7372164,4.42573099 10.5879766,4.42573099 Z M30.0763509,4.42573099 C29.7848889,4.42573099 29.5009123,4.2768655 29.3406316,4.00851462 C28.5672982,2.71410526 27.2053333,1.94123977 25.6973099,1.94123977 C24.1894737,1.94123977 22.8275088,2.71410526 22.0541754,4.00851462 C21.8117427,4.41440936 21.2860819,4.54680702 20.8801871,4.30437427 C20.4742924,4.06194152 20.3418947,3.5362807 20.5843275,3.13038596 C21.6697076,1.31377778 23.5810994,0.229146199 25.6973099,0.229146199 C27.813614,0.229146199 29.7250058,1.31368421 30.8104795,3.13038596 C31.0529123,3.5362807 30.9205146,4.06184795 30.5146199,4.30437427 C30.3771696,4.38671345 30.2257778,4.42573099 30.0763509,4.42573099 Z M15.9533099,17.0124912 C11.3089123,17.0124912 6.66638596,15.2452865 3.13066667,11.7097544 C2.79635088,11.3754386 2.79635088,10.8334971 3.13066667,10.4990877 C3.46507602,10.1647719 4.00711111,10.1647719 4.3414269,10.4990877 C10.7437661,16.9018012 21.1620117,16.9018947 27.5650994,10.4990877 C27.8996959,10.1647719 28.4416374,10.1648655 28.7758596,10.4990877 C29.1101754,10.8334035 29.1101754,11.3755322 28.7758596,11.709848 C25.2409825,15.244538 20.5963041,17.0124912 15.9533099,17.0124912 Z" id="path-4"></path>
    </defs>
    <g stroke="none" stroke-width="1" fill="none" fill-rule="evenodd">
        <g>
            <mask id="mask-2" fill="white">
                <use xlink:href="#path-1"></use>
            </mask>
            <g fill-rule="nonzero"></g>
            <g mask="url(#mask-2)" fill="#FFBE0B">
                <rect x="0" y="0" width="48" height="48"></rect>
            </g>
            <path d="M23.5,-5 C46.4280556,-5 53,1.46377778 53,24 C53,46.5362222 46.4280556,53 23.5,53 C0.571944444,53 -6,46.5362222 -6,24 C-6,1.46377778 0.555555556,-5 23.5,-5 Z" fill="url(#linearGradient-3)" fill-rule="nonzero" style="mix-blend-mode: overlay;" mask="url(#mask-2)" transform="translate(23.500000, 24.000000) rotate(-45.000000) translate(-23.500000, -24.000000) "></path>
        </g>
        <g transform="translate(8.000000, 18.000000)">
            <mask id="mask-5" fill="white">
                <use xlink:href="#path-4"></use>
            </mask>
            <use fill="#000000" fill-rule="nonzero" xlink:href="#path-4"></use>
        </g>
    </g>
</svg>