<?xml version="1.0" encoding="UTF-8"?>
<svg width="48px" height="48px" viewBox="0 0 48 48" version="1.1" xmlns="http://www.w3.org/2000/svg" xmlns:xlink="http://www.w3.org/1999/xlink">
    <!-- Generator: Sketch 51.2 (57519) - http://www.bohemiancoding.com/sketch -->
    <title>emoji/red/happy</title>
    <desc>Created with Sketch.</desc>
    <defs>
        <path d="M24,0 C42.6533333,0 48,5.34933333 48,24 C48,42.6506667 42.6533333,48 24,48 C5.34666667,48 0,42.6506667 0,24 C0,5.34933333 5.33333333,0 24,0 Z" id="path-1"></path>
        <linearGradient x1="50%" y1="-2.48949813e-15%" x2="50%" y2="100%" id="linearGradient-3">
            <stop stop-color="#FFFFFF" offset="0%"></stop>
            <stop stop-color="#FFFFFF" stop-opacity="0" offset="100%"></stop>
        </linearGradient>
    </defs>
    <g stroke="none" stroke-width="1" fill="none" fill-rule="evenodd">
        <g>
            <mask id="mask-2" fill="white">
                <use xlink:href="#path-1"></use>
            </mask>
            <g fill-rule="nonzero"></g>
            <g mask="url(#mask-2)" fill="#FF006E">
                <rect x="0" y="0" width="48" height="48"></rect>
            </g>
            <path d="M23.5,-5 C46.4280556,-5 53,1.46377778 53,24 C53,46.5362222 46.4280556,53 23.5,53 C0.571944444,53 -6,46.5362222 -6,24 C-6,1.46377778 0.555555556,-5 23.5,-5 Z" fill="url(#linearGradient-3)" fill-rule="nonzero" style="mix-blend-mode: overlay;" mask="url(#mask-2)" transform="translate(23.500000, 24.000000) rotate(-45.000000) translate(-23.500000, -24.000000) "></path>
        </g>
        <g transform="translate(10.000000, 16.000000)" fill-rule="nonzero">
            <path d="M1.99165625,9.661625 L25.3230313,9.661625 C25.3230313,10.971125 25.1068438,12.230375 24.708875,13.4060938 L2.6058125,13.4060938 C2.20775,12.230375 1.99165625,10.971125 1.99165625,9.661625 Z" fill="#FFFFFF"></path>
            <path d="M2.6058125,13.4060938 L24.7087813,13.4060938 C23.9241875,15.7232188 22.4316875,17.712125 20.4885313,19.1177188 C19.6719688,17.7418438 18.1714063,16.82 16.45475,16.82 C15.4059688,16.82 14.438375,17.16425 13.65725,17.7464375 C12.876125,17.1643438 11.9074063,16.82 10.858625,16.82 C9.14309375,16.82 7.64140625,17.7418438 6.82596875,19.1177188 C4.88290625,17.7120313 3.39040625,15.7232188 2.6058125,13.4060938 Z" fill="#A81004"></path>
            <path d="M16.45475,16.82 C18.1714063,16.82 19.6719688,17.7418437 20.4885313,19.1177187 C18.56825,20.5084062 16.2077188,21.3273125 13.65725,21.3273125 C11.1067813,21.3273125 8.74625,20.5084062 6.82596875,19.1177187 C7.64140625,17.7418437 9.14309375,16.82 10.858625,16.82 C11.9074063,16.82 12.876125,17.16425 13.65725,17.7464375 C14.4384688,17.16425 15.4059688,16.82 16.45475,16.82 Z" fill="#F95428"></path>
            <path d="M3.75546875,6.3764375 C5.50540625,6.3764375 6.92909375,4.95275 6.92909375,3.2028125 C6.92909375,1.452875 5.50540625,0.0291875 3.75546875,0.0291875 C2.00553125,0.0291875 0.58184375,1.452875 0.58184375,3.2028125 C0.58184375,4.95275 2.0054375,6.3764375 3.75546875,6.3764375 Z" fill="#000000"></path>
            <path d="M24.2447187,0.02928125 C22.4947812,0.02928125 21.0710937,1.45296875 21.0710937,3.20290625 C21.0710937,4.95284375 22.4947812,6.37653125 24.2447187,6.37653125 C25.9946562,6.37653125 27.4183437,4.95284375 27.4183437,3.20290625 C27.4183437,1.45296875 25.9945625,0.02928125 24.2447187,0.02928125 Z" fill="#000000"></path>
            <path d="M25.3229375,8.8038125 L1.99165625,8.8038125 C1.5179375,8.8038125 1.13384375,9.18790625 1.13384375,9.661625 C1.13384375,11.0361875 1.35575,12.3885312 1.79328125,13.68125 C2.63084375,16.1545625 4.1973125,18.2749062 6.32290625,19.8125 C8.46603125,21.3647187 11.0023437,22.1852187 13.65725,22.1852187 C16.31225,22.1852187 18.8484687,21.3647187 20.9913125,19.812875 C23.1172812,18.2749062 24.6838437,16.1546562 25.5212187,13.6814375 C25.95875,12.3888125 26.1806562,11.036375 26.1806562,9.66190625 C26.18075,9.18790625 25.7966562,8.8038125 25.3229375,8.8038125 Z M24.4315625,10.5193437 C24.3775625,11.2072812 24.25775,11.88575 24.0744687,12.5482812 L3.2399375,12.5482812 C3.05675,11.88575 2.93684375,11.207375 2.88284375,10.5193437 L24.4315625,10.5193437 Z M8.0530625,18.90425 C8.77015625,18.1345625 9.78734375,17.6777187 10.8585312,17.6777187 C11.6900937,17.6777187 12.4805937,17.9392812 13.144625,18.4341875 C13.44875,18.6607812 13.8656562,18.660875 14.1696875,18.4341875 C14.833625,17.9392812 15.62375,17.6777187 16.4545625,17.6777187 C17.5252812,17.6777187 18.54275,18.134375 19.2606875,18.9044375 C17.5758125,19.9307187 15.655625,20.4695 13.6570625,20.4695 C11.6585,20.4695 9.7383125,19.9307187 8.0530625,18.90425 Z M20.6582187,17.8954062 C19.614125,16.6860312 18.0769062,15.9621875 16.4546562,15.9621875 C15.45875,15.9621875 14.502875,16.2220625 13.6571562,16.718375 C12.8114375,16.221875 11.8551875,15.9621875 10.8585312,15.9621875 C9.23553125,15.9621875 7.6983125,16.6862187 6.65571875,17.8949375 C5.4723125,16.890875 4.52946875,15.6585312 3.874625,14.2638125 L23.4396875,14.2638125 C22.7848437,15.6588125 21.8419062,16.89125 20.6582187,17.8954062 Z" fill="#000000"></path>
            <g transform="translate(3.218750, 1.906250)" fill="#FFFFFF">
                <circle cx="0.88875" cy="0.864" r="1"></circle>
                <circle cx="21.3608438" cy="0.864" r="1"></circle>
            </g>
        </g>
    </g>
</svg>